<svg xmlns="http://www.w3.org/2000/svg" width="125.724" height="33.068" viewBox="0 0 125.724 33.068"><g transform="translate(-0.03 5.248)"><path d="M804.248,86.01a1.979,1.979,0,0,1,1.453.155,1.725,1.725,0,0,1,.77,1.544,1.9,1.9,0,0,1-3.078,1.466,1.918,1.918,0,0,1-.173-2.465A1.743,1.743,0,0,1,804.248,86.01Z" transform="translate(-756.501 -85.94)" fill="#fff"/><path d="M502.561,97.234a11.792,11.792,0,0,1,4.1-.808,11.231,11.231,0,0,1,3.406.409q-.216,1.23-.433,2.459a10.6,10.6,0,0,0-3.376-.554,8.273,8.273,0,0,0-3.387.715A5.993,5.993,0,0,0,500.855,101a8.05,8.05,0,0,0-1.463,2.536,9.717,9.717,0,0,0-.5,3.689,8.464,8.464,0,0,0,.958,3.583,7.82,7.82,0,0,0,3.233,3.294,8.688,8.688,0,0,0,3.644.9,14.19,14.19,0,0,0,4.413-.654c-.072.77-.125,1.543-.208,2.309a14.644,14.644,0,0,1-4.034.564,12.38,12.38,0,0,1-6.04-1.311,8.992,8.992,0,0,1-3.55-3.726,11.146,11.146,0,0,1-1.039-6.763,10.609,10.609,0,0,1,2.441-5.354A9.735,9.735,0,0,1,502.561,97.234Z" transform="translate(-467.492 -95.81)" fill="#fff"/><path d="M904.447,120.448l2.425-.248c-.119,1.547-.247,3.1-.263,4.648,1.484,0,2.966-.079,4.446-.154q-.054,1.155-.109,2.3c-1.487-.047-2.974-.09-4.462-.092-.023,1.524-.029,3.049-.031,4.573a19.869,19.869,0,0,0,.192,3.464,3.149,3.149,0,0,0,.742,1.74,2.856,2.856,0,0,0,1.857.693,6.627,6.627,0,0,0,2.151-.3q-.093,1.006-.186,2.011a6.66,6.66,0,0,1-2.6.443,5.1,5.1,0,0,1-2.95-.842,3.623,3.623,0,0,1-1.2-2.03,15.281,15.281,0,0,1-.373-3.92c0-1.946.017-3.891.029-5.837-.85,0-1.7.048-2.547.093.029-.748.062-1.495.092-2.242.874.054,1.749.093,2.625.091C904.313,123.38,904.385,121.914,904.447,120.448Z" transform="translate(-849.518 -118.22)" fill="#fff"/><path d="M800.17,190.707l3.091-.417c-.156,2.792-.188,5.589-.185,8.385.009,2.194.075,4.388.215,6.582h-2.8c.185-2.73.236-5.467.207-8.2A41.054,41.054,0,0,0,800.17,190.707Z" transform="translate(-753.973 -184.263)" fill="#fff"/><path d="M1098.14,195.351h3.2a11.735,11.735,0,0,0,.4,1.333c1.039,3.073,2.327,6.062,3.216,9.185a7.333,7.333,0,0,1,.289,1.516l.142,0a8.057,8.057,0,0,1,.281-1.461c.645-2.428,1.559-4.772,2.278-7.178a15.889,15.889,0,0,0,.738-3.393h2.816a7.445,7.445,0,0,1-.438,1.656c-.722,2.014-1.607,3.964-2.457,5.925-.827,1.928-1.642,3.864-2.326,5.849-.353.993-.577,2.025-.89,3.03a17.308,17.308,0,0,1-1.082,2.837,3.432,3.432,0,0,1-1.033,1.248,6.536,6.536,0,0,1-3.811.956l-.124-2.163a4.379,4.379,0,0,0,4.316-3.222,4.58,4.58,0,0,0,.087-2.145,19.249,19.249,0,0,0-.768-2.547c-.781-2.144-1.712-4.229-2.633-6.315C1099.6,198.758,1098.829,197.072,1098.14,195.351Z" transform="translate(-1034.739 -189.031)" fill="#fff"/><path d="M16.038,96.1l.091.085c-.124.173-.249.346-.374.523.389,0,.779,0,1.168.021a14.731,14.731,0,0,1,3.295.656q.527-.628,1.043-1.265l.208.009a12.813,12.813,0,0,1-.924,1.359,13.972,13.972,0,0,1,3.962,1.951q.646-.924,1.232-1.894c.043-.124.183-.079.283-.089-.421.719-.841,1.439-1.27,2.152,1.048.738,2.049,1.541,3.027,2.367l-.135.13c-.492-.42-.982-.844-1.473-1.262a11.051,11.051,0,0,0-1.539-1.035,30.588,30.588,0,0,1-2.3,3.227c.284.225.564.456.835.7a16.678,16.678,0,0,1,2.328,2.595,45.182,45.182,0,0,0,3.522-5.514l.209.061c-.568,1.165-1.134,2.331-1.793,3.447-.5.838-1.039,1.648-1.611,2.436q.457.627.884,1.275l-.115.1c-.286-.411-.588-.808-.9-1.2a46.6,46.6,0,0,1-3.48,4.142c.477.554.956,1.105,1.432,1.66l-.113.1q-.727-.808-1.476-1.593a39.286,39.286,0,0,1-3.11,3.022A39.851,39.851,0,0,1,15.5,117.14q.71.823,1.439,1.632l-.112.094q-.751-.8-1.505-1.589a46.435,46.435,0,0,1-4.47,3.047q.543.52,1.11,1.015l-.115.1q-.6-.487-1.178-1.006A29.49,29.49,0,0,1,7.158,122.2c-.882.371-1.782.693-2.675,1.033-.016-.072-.032-.143-.048-.214a46.243,46.243,0,0,0,5.841-2.945c-.283-.267-.564-.536-.838-.813a14.932,14.932,0,0,1-2.121-2.67,28.742,28.742,0,0,1-3.437,1.96,9.916,9.916,0,0,0,.967,1.779c.338.483.674.968,1.013,1.45l-.14.122c-.727-1.055-1.424-2.133-2.054-3.249-.751.356-1.507.7-2.261,1.047,0-.075.008-.15.012-.224.708-.338,1.414-.688,2.093-1.083a5.026,5.026,0,0,0-.26-.509,13.8,13.8,0,0,1-1.27-3.63,14.156,14.156,0,0,1-1.449.787v-.064c0-.038.012-.115.017-.151.456-.3.909-.6,1.361-.909a20.78,20.78,0,0,1-.3-2.15,12.121,12.121,0,0,1,.077-2.36c-.163.093-.322.193-.488.281-.046.073-.155,0-.121-.069.185-.173.408-.3.6-.47.068-.045.062-.132.079-.2.115-.771.247-1.54.435-2.3a13.692,13.692,0,0,1,1.795-3.9,10.265,10.265,0,0,1,.969-1.23,5.584,5.584,0,0,0,.415-1.2,1.179,1.179,0,0,1,.189-.053c-.047.269-.115.533-.173.8.283-.289.559-.583.844-.866.275-.231.577-.423.851-.653-.259.029-.516.062-.774.1.014-.065.027-.129.041-.192.351-.092.708-.159,1.065-.225a1.174,1.174,0,0,0,.431-.246,11.341,11.341,0,0,1,2.252-1.2,11.823,11.823,0,0,1,3.2-.892c.72-.085,1.443-.137,2.167-.166Zm-.707,1.2a21.159,21.159,0,0,1-1.55,1.814,26.731,26.731,0,0,1,3.935,1.1c.741-.794,1.471-1.6,2.163-2.436a13.227,13.227,0,0,0-4.548-.482Zm-3.034.357a10.156,10.156,0,0,0-3.186,1.236c.583-.009,1.166,0,1.749,0a15.32,15.32,0,0,1,2.38.129c.555-.554,1.1-1.123,1.637-1.69C14.013,97.4,13.153,97.519,12.3,97.653Zm5.9,2.752a8.872,8.872,0,0,1,1.112.555,27.6,27.6,0,0,1,2.651,1.79q1.259-1.5,2.4-3.085a21.205,21.205,0,0,0-4.106-1.777C19.6,98.757,18.917,99.593,18.2,100.4ZM8.323,99.43a.5.5,0,0,0-.182.092c-.423.289-.855.568-1.27.871,1.194.419,2.38.866,3.534,1.386.793-.748,1.583-1.5,2.351-2.27a19.106,19.106,0,0,0-4.433-.079Zm5,.173c-.757.838-1.545,1.647-2.352,2.436a28.452,28.452,0,0,1,3.167,1.826c1.088-1.045,2.132-2.133,3.175-3.22A24.018,24.018,0,0,0,13.317,99.6Zm1.314,4.588a22.8,22.8,0,0,1,3.479,2.737,52.923,52.923,0,0,0,3.651-3.947,18.059,18.059,0,0,0-3.959-2.153c-1.04,1.135-2.069,2.283-3.171,3.361Zm-8.4-3.259c-.364.438-.745.866-1.089,1.317a18.634,18.634,0,0,0-.376,4.457c.845-.685,1.665-1.4,2.492-2.106C6.862,103.394,6.536,102.166,6.234,100.932Zm.54-.014a33.186,33.186,0,0,0,.866,3.356c.818-.7,1.645-1.395,2.413-2.153A34.481,34.481,0,0,0,6.775,100.918Zm1.076,3.926c.444,1.136.963,2.24,1.513,3.327.814-.68,1.6-1.4,2.4-2.081.676-.608,1.334-1.234,1.988-1.864-1.032-.654-2.078-1.29-3.169-1.84-.879.857-1.807,1.66-2.737,2.46Zm-4.955,1.5c-.189.747-.368,1.5-.509,2.256q.927-.719,1.843-1.453a15.749,15.749,0,0,1,.11-2.356c.062-.588.109-1.178.177-1.766A9.69,9.69,0,0,0,2.895,106.341Zm19.255-3.075c-1.143,1.409-2.367,2.748-3.643,4.037,1.13,1.1,2.255,2.2,3.327,3.349a40.15,40.15,0,0,0,3.529-4.137c-.507-.626-1.035-1.237-1.589-1.823A13.667,13.667,0,0,0,22.15,103.266ZM9.639,108.711c.22.416.435.835.673,1.242.531.862,1.055,1.729,1.591,2.588.719-.594,1.438-1.19,2.144-1.8.344-.294.67-.608,1.023-.891.96-.85,1.864-1.759,2.779-2.656-.8-.619-1.611-1.227-2.416-1.842-.381-.278-.778-.534-1.171-.8C12.77,105.993,11.221,107.372,9.639,108.711ZM4.8,107.281a24.667,24.667,0,0,0,.64,4.069c1.187-.93,2.374-1.86,3.522-2.837a29.265,29.265,0,0,1-1.5-3.335C6.6,105.912,5.7,106.6,4.8,107.281Zm13.424.305c-.982.979-2,1.926-3.009,2.873-.991.858-1.99,1.707-3.007,2.533.9,1.293,1.905,2.51,2.925,3.712q1.141-.919,2.241-1.89c1.446-1.312,2.925-2.591,4.291-3.989-1.053-1.1-2.129-2.174-3.272-3.175C18.345,107.622,18.282,107.508,18.224,107.586ZM2.308,109.047a13.279,13.279,0,0,0,.026,4.577q1.344-.924,2.64-1.915a26.706,26.706,0,0,1-.7-4.024A21.711,21.711,0,0,1,2.308,109.047Zm3.267,2.816a18.157,18.157,0,0,0,1.745,4.15c1.472-1.019,2.923-2.073,4.292-3.229a23.094,23.094,0,0,1-2.367-3.738C8.051,110.026,6.808,110.939,5.574,111.863ZM2.4,114a21.605,21.605,0,0,0,1.349,4.265c1.133-.643,2.23-1.346,3.313-2.074A20.268,20.268,0,0,1,5.111,112.2C4.242,112.848,3.331,113.439,2.4,114Zm5.166,2.422a17.273,17.273,0,0,0,2.909,3.529,40.229,40.229,0,0,0,4.469-3.1c-1.039-1.183-2.021-2.413-3-3.647a53.283,53.283,0,0,1-4.377,3.214Z" transform="translate(-0.5 -95.511)" fill="#fff"/><path d="M1933.315,120.445c.808-.078,1.617-.164,2.425-.245-.119,1.547-.247,3.1-.263,4.648,1.484,0,2.966-.079,4.446-.153q-.054,1.152-.109,2.3c-1.487-.048-2.975-.091-4.462-.092-.024,1.678-.028,3.356-.032,5.033a16.647,16.647,0,0,0,.226,3.175,2.989,2.989,0,0,0,.682,1.539,2.726,2.726,0,0,0,1.717.708,6.309,6.309,0,0,0,2.318-.284q-.091,1.008-.184,2.013a6.915,6.915,0,0,1-2.136.445,8.353,8.353,0,0,1-1.667-.122,3.505,3.505,0,0,1-2.309-1.3,6.024,6.024,0,0,1-.863-2.6,33.2,33.2,0,0,1-.144-4.446q.009-2.083.026-4.166c-.85,0-1.7.048-2.547.093q.045-1.121.092-2.242c.873.054,1.749.094,2.624.092C1933.18,123.379,1933.248,121.912,1933.315,120.445Z" transform="translate(-1818.986 -118.22)" fill="#fff"/><path d="M1667.409,184.635a6.346,6.346,0,0,1,3.237-1.016,7.183,7.183,0,0,1,3.43.6,4.875,4.875,0,0,1,1.8,1.494,6.276,6.276,0,0,1,1.184,2.909,15.915,15.915,0,0,1,.03,3.067c-3.536.069-7.073.125-10.609.188a5.64,5.64,0,0,0,.954,2.848,5.4,5.4,0,0,0,2.617,2.058,8.389,8.389,0,0,0,3.425.36,15.963,15.963,0,0,0,3.365-.543l-.263,2.182a10.273,10.273,0,0,1-3.043.564,14.249,14.249,0,0,1-3.748-.2,7.071,7.071,0,0,1-5.745-6.2,9.531,9.531,0,0,1,1.185-5.935A7.242,7.242,0,0,1,1667.409,184.635Zm.5,2.174a6.248,6.248,0,0,0-1.338,3.285l8-.169a7.662,7.662,0,0,0-.149-1.579,3.427,3.427,0,0,0-1.245-2.131,4.042,4.042,0,0,0-2.755-.6,3.776,3.776,0,0,0-2.511,1.2Z" transform="translate(-1567.909 -177.968)" fill="#fff"/><path d="M1376.5,186.975a6.673,6.673,0,0,1,2.869-.414,5.842,5.842,0,0,1,3.415,1.124,3.862,3.862,0,0,1,1.249,2.317,19.851,19.851,0,0,1,.09,4.05c0,2.559.032,5.118.062,7.679h-2.813c.246-2.958.339-5.927.34-8.895a5.476,5.476,0,0,0-.577-2.744,3.156,3.156,0,0,0-2.382-1.3,5.879,5.879,0,0,0-3.823.828,5.379,5.379,0,0,0-.981.735c-.011,3.793.023,7.586.058,11.379H1371.2c.083-1.674.16-3.349.213-5.023.037-1.249.072-2.5.031-3.753a35.48,35.48,0,0,0-.661-5.836l2.72-.386c.1.629.2,1.256.293,1.885h.126A8.124,8.124,0,0,1,1376.5,186.975Z" transform="translate(-1291.638 -180.734)" fill="#fff"/><path d="M2078.411,484.074c.18-.068.489-.065.547.165a.351.351,0,0,1-.451.4A.316.316,0,0,1,2078.411,484.074Z" transform="translate(-1958.279 -461.05)" fill="#fff"/><path d="M1731.7,486.472h.473c0,.745,0,1.49,0,2.234.011.122.016.316.173.332a3.845,3.845,0,0,0,.835,0c.173-.033.18-.237.181-.378,0-.73,0-1.46,0-2.19h.491v2.14a.394.394,0,0,0,.138.352,1.071,1.071,0,0,0,.622.095V486.47h.482v1.7a1.314,1.314,0,0,1,.808-.538.84.84,0,0,1,.782.618,1.138,1.138,0,0,1-.144,1.049.713.713,0,0,1-.577.241h-1.617a.841.841,0,0,1-.624-.3.808.808,0,0,1-.647.3A2.186,2.186,0,0,1,1732,489.4a.635.635,0,0,1-.295-.564C1731.7,488.051,1731.7,487.262,1731.7,486.472Zm4,1.745a2.266,2.266,0,0,0-.658.84c.324,0,.651.011.976,0,.156-.011.222-.185.231-.32a.776.776,0,0,0-.108-.533A.34.34,0,0,0,1735.7,488.217Z" transform="translate(-1631.72 -463.343)" fill="#fff"/><path d="M1831.25,486.5h.468v3.072h-.468Z" transform="translate(-1725.523 -463.372)" fill="#fff"/><path d="M1670.491,487.7h.479c.006.708,0,1.417,0,2.126.008.133.013.338.181.365a5.6,5.6,0,0,0,.818.028,1.182,1.182,0,0,1-.058-.99.983.983,0,0,1,1.14-.4,1.385,1.385,0,0,1,.489.313q-.12.191-.245.379c-.24-.173-.572-.4-.866-.225-.294.264-.152.965.306.927h.89c.027.163.053.326.08.489h-2.3a1.2,1.2,0,0,1-.757-.234.7.7,0,0,1-.166-.533C1670.491,489.191,1670.489,488.445,1670.491,487.7Z" transform="translate(-1574.044 -464.502)" fill="#fff"/><path d="M2015.615,487.7h.482v2.122c0,.14.02.358.2.372a4.291,4.291,0,0,0,.894,0c.129,0,.185-.142.2-.251.027-.245.008-.493.014-.739h.482c.005.246-.014.492.01.738.055.208.3.257.485.272.4.015.8,0,1.2.008a.623.623,0,0,0,.33-.05c.1-.068.087-.195.115-.294a6,6,0,0,1-.894-.064.767.767,0,0,1-.217-1.113.9.9,0,0,1,1.461.163,2.955,2.955,0,0,1,.148,1.082.757.757,0,0,1-.774.762c-.5,0-1,0-1.5,0a1.115,1.115,0,0,1-.6-.173c-.3.248-.712.161-1.073.173a1.12,1.12,0,0,1-.866-.3,1.377,1.377,0,0,1-.106-.751Zm3.712,1.685a2.971,2.971,0,0,0,.673.035.83.83,0,0,0-.129-.4.455.455,0,0,0-.455-.122C2019.191,488.93,2019.164,489.265,2019.327,489.385Z" transform="translate(-1899.238 -464.502)" fill="#fff"/><path d="M1270.944,495.317c.183-.084.524-.055.53.206.022.231-.244.353-.437.289A.276.276,0,0,1,1270.944,495.317Z" transform="translate(-1197.455 -471.64)" fill="#fff"/><path d="M1286.924,495.266c.184-.083.526-.055.53.208.026.32-.462.4-.617.166A.283.283,0,0,1,1286.924,495.266Z" transform="translate(-1212.51 -471.593)" fill="#fff"/><path d="M1329.484,495.665c.184-.063.5-.058.545.184a.351.351,0,0,1-.462.387A.312.312,0,0,1,1329.484,495.665Z" transform="translate(-1252.581 -471.975)" fill="#fff"/><path d="M1440.275,495.251c.18-.066.491-.027.5.217.038.311-.413.42-.589.208A.289.289,0,0,1,1440.275,495.251Z" transform="translate(-1356.983 -471.59)" fill="#fff"/><path d="M1456.179,495.257c.181-.062.488-.025.491.221.031.236-.241.37-.44.3A.28.28,0,0,1,1456.179,495.257Z" transform="translate(-1371.964 -471.598)" fill="#fff"/><path d="M1612.866,495.266c.181-.081.516-.051.523.2a.317.317,0,0,1-.423.3A.284.284,0,0,1,1612.866,495.266Z" transform="translate(-1519.633 -471.594)" fill="#fff"/><path d="M1628.8,495.264c.181-.076.51-.045.516.208.031.3-.4.419-.583.215A.293.293,0,0,1,1628.8,495.264Z" transform="translate(-1534.638 -471.595)" fill="#fff"/><path d="M2035.306,495.659c.182-.058.49-.048.534.188a.348.348,0,0,1-.445.391A.311.311,0,0,1,2035.306,495.659Z" transform="translate(-1917.642 -471.974)" fill="#fff"/><path d="M1874.159,507.217a.8.8,0,0,1,.685-.741c.244-.024.49-.007.736-.009q.007.225.017.449a3.808,3.808,0,0,0-.736.028c-.289.123-.231.489-.256.743a1.8,1.8,0,0,1,.9.147.851.851,0,0,1,.187.875,1.134,1.134,0,0,1-1.07.884c-.307,0-.614.007-.919,0a1.166,1.166,0,0,1-1.02-1.062c-.023-.387-.005-.775-.01-1.162h.449c.013.376-.009.751.011,1.129a.727.727,0,0,0,.738.625c.253,0,.509.012.763-.008a.689.689,0,0,0,.63-.688c-.027-.163-.2-.238-.344-.264a7.237,7.237,0,0,0-.767-.016C1874.157,507.834,1874.143,507.525,1874.159,507.217Z" transform="translate(-1764.551 -482.182)" fill="#fff"/><path d="M1972.688,506.5a1.255,1.255,0,0,1,.76.016.758.758,0,0,1,.427.6,8.114,8.114,0,0,1,.052,1.356,1.18,1.18,0,0,1-1.11,1.108c-.239.01-.476,0-.714,0-.023-.162-.044-.324-.063-.486.374-.023.8.082,1.125-.161a.769.769,0,0,0,.289-.563,1.615,1.615,0,0,1-.987-.242,1.084,1.084,0,0,1-.231-.986A.721.721,0,0,1,1972.688,506.5Zm.049.668a.643.643,0,0,0,.093.605,1.071,1.071,0,0,0,.615.115,3.466,3.466,0,0,0-.031-.718A.362.362,0,0,0,1972.737,507.164Z" transform="translate(-1858.184 -482.165)" fill="#fff"/><path d="M1253.691,513.625h.488a5.362,5.362,0,0,0,.023.793c.131.285.5.214.75.219.173-.025.452.058.524-.164a3.568,3.568,0,0,0,.029-.853H1256c0,.266.007.532,0,.8a.729.729,0,0,1-.7.71,2.663,2.663,0,0,1-1.359-.173.856.856,0,0,1-.485.173h-2.483a.692.692,0,0,1-.665-.526,5.611,5.611,0,0,1-.035-.975h.482a6.375,6.375,0,0,0,.021.828c.035.164.225.19.365.187h2.2c.139.007.319-.045.335-.208A6.646,6.646,0,0,0,1253.691,513.625Z" transform="translate(-1178.078 -488.926)" fill="#fff"/><path d="M1380.682,513.6h.484a5.331,5.331,0,0,0,.029.854c.043.154.226.16.357.165.289,0,.577.014.866-.008a.24.24,0,0,0,.222-.217c.025-.262,0-.526.012-.789h.483a4.843,4.843,0,0,0,.028.845c.08.211.349.154.527.173.191-.009.475.049.565-.177a5.449,5.449,0,0,0,.028-.841h.476c.005.264-.016.53.011.794.051.318.6.435.718.115.034-.3.006-.607.015-.91h.468c.005.266-.016.532.01.8.054.318.6.43.72.111.031-.3,0-.606.013-.908h.473a9.516,9.516,0,0,1-.021.966.659.659,0,0,1-.588.59.911.911,0,0,1-.73-.31.807.807,0,0,1-.6.313.946.946,0,0,1-.635-.371.888.888,0,0,1-.693.315c-.34-.025-.751.09-1.017-.178-.3.249-.708.166-1.068.178-.309-.01-.666.058-.911-.178a.95.95,0,0,1-.7.177h-1.043a1.245,1.245,0,0,1-.028.543,1.047,1.047,0,0,1-1.013.67,7.128,7.128,0,0,1-1.032-.032,1.191,1.191,0,0,1-.856-1.009,10.268,10.268,0,0,1-.028-1.2h.482c0,.359-.005.718,0,1.076a.645.645,0,0,0,.34.569,1.658,1.658,0,0,0,.808.111,1.2,1.2,0,0,0,.635-.1.5.5,0,0,0,.234-.471c-.035-.084-.131-.107-.208-.129a3.774,3.774,0,0,0-.786-.04c-.014-.16-.029-.319-.043-.479h2.6c.14,0,.334-.016.372-.182A7.4,7.4,0,0,0,1380.682,513.6Z" transform="translate(-1296.77 -488.907)" fill="#fff"/><path d="M1594,513.545h.483c.007.27-.018.542.015.808.016.162.193.217.334.21.714,0,1.428,0,2.143,0a.738.738,0,0,0,.329-.05.316.316,0,0,0,.12-.281c.008-.231,0-.462,0-.693h.488a2.925,2.925,0,0,1-.1,1.126.67.67,0,0,1-.617.381h-2.535a.7.7,0,0,1-.653-.654C1593.989,514.112,1594.005,513.829,1594,513.545Z" transform="translate(-1501.968 -488.85)" fill="#fff"/><path d="M1932.18,513.7h.5v1.486a1.284,1.284,0,0,1-.69,1.12,2.928,2.928,0,0,1-1.148.109q-.042-.243-.079-.486a2.158,2.158,0,0,0,1.1-.144.611.611,0,0,0,.32-.534C1932.182,514.733,1932.179,514.217,1932.18,513.7Z" transform="translate(-1819.288 -489.001)" fill="#fff"/><path d="M1469.352,551.045c.182-.112.557-.073.551.2.016.255-.316.368-.5.237A.27.27,0,0,1,1469.352,551.045Z" transform="translate(-1384.432 -524.135)" fill="#fff"/><path d="M1485.271,551.066c.181-.11.554-.072.55.2a.316.316,0,0,1-.48.252A.272.272,0,0,1,1485.271,551.066Z" transform="translate(-1399.432 -524.156)" fill="#fff"/><g transform="translate(108.15 -17.353)"><circle cx="2.5" cy="2.5" r="2.5" transform="translate(12.355 12.355)" fill="none" stroke="#fff" stroke-width="0.5"/><path d="M57.7,47.288a.428.428,0,0,0,.283-.076.375.375,0,0,0,0-.482.444.444,0,0,0-.283-.071h-.266v.63H57.7m-.266.435v.927H56.8V46.2h.965a1.211,1.211,0,0,1,.708.164.582.582,0,0,1,.226.513.647.647,0,0,1-.116.4.673.673,0,0,1-.354.228.487.487,0,0,1,.233.135,1.169,1.169,0,0,1,.207.316l.344.694h-.672l-.3-.608a.655.655,0,0,0-.183-.249.412.412,0,0,0-.247-.069h-.178" transform="translate(-42.972 -32.623)" fill="#fff"/></g></g></svg>